<svg width="24" height="24" viewBox="0 0 24 24" fill="none" xmlns="http://www.w3.org/2000/svg">
<path d="M19.9999 8.69V4H15.3099L11.9999 0.690002L8.68994 4H3.99994V8.69L0.689941 12L3.99994 15.31V20H8.68994L11.9999 23.31L15.3099 20H19.9999V15.31L23.3099 12L19.9999 8.69ZM11.9999 18C11.1099 18 10.2599 17.8 9.49994 17.45C11.5599 16.5 12.9999 14.42 12.9999 12C12.9999 9.58 11.5599 7.5 9.49994 6.55C10.2599 6.2 11.1099 6 11.9999 6C15.3099 6 17.9999 8.69 17.9999 12C17.9999 15.31 15.3099 18 11.9999 18Z" fill="#BDBDBD"/>
</svg>
